#N canvas 123 115 853 637 10;
#X declare -lib geps;
#X obj 61 138 t f f f f f;
#X obj 306 172 switch~;
#X obj 306 152 tgl 15 0 empty empty empty 17 7 0 10 -262144 -1 -1 0
1;
#X obj 306 132 r sp-dsp;
#X text 305 189 proc switch;
#X obj 61 46 inlet mod_switch;
#X obj 428 152 sel 0 1;
#X obj 40 70 cnv 15 160 60 label-fbnetwork-snd label-fbnetwork-rcv
GePS_Feedback_Net 20 12 0 12 -261689 -66577 0;
#X obj 61 97 tgl 15 0 empty empty empty 17 7 0 10 -262144 -1 -1 0 1
;
#X text 81 96 turn module on/off;
#X obj 212 83 route switch;
#X obj 31 183 spigot 0;
#X text 139 158 receive sensor data;
#X obj 212 62 r geps.fbnetwork;
#N canvas 84 552 414 151 header 0;
#X obj 2 2 cnv 15 390 126 empty empty geps.fbnetwork 10 12 0 12 -240757
-86277 0;
#X text 11 55 Transform gestures in resonating awesomeness;
#X text 10 75 DSP implementation of a feedback network as described
in our research paper. For more details: http://geps.synack.ch/research.html
http://dx.doi.org/10.1145/2814895.2814901;
#X text 11 25 GePS Feedback Network;
#X coords 0 -1 1 1 394 130 1 0 0;
#X restore 429 11 pd header;
#X msg 428 171 \; label-fbnetwork-rcv color 3 2;
#X msg 447 207 \; label-fbnetwork-rcv color 16 12;
#X obj 221 350 noise~;
#X obj 664 412 cyclone/rand~ 0.04;
#X obj 649 484 *~;
#X obj 29 484 *~;
#X obj 44 412 cyclone/rand~ 0.02;
#X obj 431 350 noise~;
#X obj 231 392 r mod_a;
#X obj 231 433 cyclone/prepend xgain;
#X obj 231 413 cyclone/prepend igain;
#X obj 441 392 r mod_a;
#X obj 441 433 cyclone/prepend xgain;
#X obj 441 413 cyclone/prepend igain;
#X obj 437 521 delwrite~ xover-right 500;
#X obj 228 521 delwrite~ xover-left 500;
#X obj 221 371 *~ 0.01;
#X obj 431 371 *~ 0.01;
#X obj 161 412 r mod_c;
#X obj 781 412 r mod_c;
#X obj 649 463 delread~ xover-left 150;
#X obj 29 463 delread~ xover-right 150;
#X obj 552 455 r mod_b;
#X obj 342 455 r mod_b;
#X obj 431 570 cyclone/tanh~;
#X obj 221 571 cyclone/tanh~;
#X obj 221 500 fbnet~;
#X obj 431 500 fbnet~;
#N canvas 0 22 249 149 slowrandom 0;
#X obj 11 9 cyclone/rand~ 30;
#X obj 11 30 cyclone/scale~ -1 1 0.1 0.001;
#X obj 11 51 cyclone/rand~;
#X obj 11 72 cyclone/scale~ -1 1 1 2630;
#X obj 11 93 outlet~;
#X connect 0 0 1 0;
#X connect 1 0 2 0;
#X connect 2 0 3 0;
#X connect 3 0 4 0;
#X restore 252 476 pd slowrandom;
#N canvas 0 22 450 300 fastrandom 0;
#X obj 13 12 inlet;
#X obj 13 54 cyclone/scale~ -1 1 1 2630;
#X obj 13 75 outlet~;
#X obj 13 33 cyclone/rand~ 0.7;
#X obj 135 12 inlet;
#X connect 0 0 3 0;
#X connect 1 0 2 0;
#X connect 3 0 1 0;
#X connect 4 0 1 4;
#X restore 342 476 pd fastrandom;
#N canvas 0 22 450 300 fastrandom 0;
#X obj 13 12 inlet;
#X obj 13 54 cyclone/scale~ -1 1 1 2630;
#X obj 13 75 outlet~;
#X obj 13 33 cyclone/rand~ 0.7;
#X obj 135 12 inlet;
#X connect 0 0 3 0;
#X connect 1 0 2 0;
#X connect 3 0 1 0;
#X connect 4 0 1 4;
#X restore 462 476 pd fastrandom;
#N canvas 0 22 450 300 fastrandom 0;
#X obj 13 12 inlet;
#X obj 13 54 cyclone/scale~ -1 1 1 2630;
#X obj 13 75 outlet~;
#X obj 13 33 cyclone/rand~ 0.7;
#X obj 135 12 inlet;
#X connect 0 0 3 0;
#X connect 1 0 2 0;
#X connect 3 0 1 0;
#X connect 4 0 1 4;
#X restore 552 476 pd fastrandom;
#X obj 31 286 cyclone/scale -0.1 0.8 -0.2 1;
#X obj 221 286 cyclone/scale 0 1 0.06 1;
#X obj 31 307 s mod_a;
#X obj 221 307 s mod_b;
#X obj 382 307 s mod_c;
#X obj 382 258 slide.cs 20 500;
#X obj 31 265 slide.cs 65 45;
#X obj 31 160 r gyrodelta_all;
#X obj 221 593 throw~ ch-03.L;
#X obj 431 593 throw~ ch-03.R;
#X obj 221 551 *~ 0.25;
#X obj 431 550 *~ 0.25;
#X obj 664 433 cyclone/scale~ -1 1 0.5 2;
#X obj 44 433 cyclone/scale~ -1 1 0.5 2;
#X obj 382 286 cyclone/scale 0 1 1 8;
#X obj 31 244 * 8;
#X obj 15 17 declare -lib geps;
#X connect 0 1 11 1;
#X connect 0 3 6 0;
#X connect 0 4 2 0;
#X connect 2 0 1 0;
#X connect 3 0 2 0;
#X connect 5 0 8 0;
#X connect 6 0 15 0;
#X connect 6 1 16 0;
#X connect 8 0 0 0;
#X connect 10 0 8 0;
#X connect 11 0 62 0;
#X connect 13 0 10 0;
#X connect 17 0 31 0;
#X connect 18 0 59 0;
#X connect 19 0 42 0;
#X connect 20 0 41 0;
#X connect 21 0 60 0;
#X connect 22 0 32 0;
#X connect 23 0 25 0;
#X connect 23 0 24 0;
#X connect 24 0 41 0;
#X connect 25 0 41 0;
#X connect 26 0 28 0;
#X connect 26 0 27 0;
#X connect 27 0 42 0;
#X connect 28 0 42 0;
#X connect 31 0 41 0;
#X connect 32 0 42 0;
#X connect 33 0 60 4;
#X connect 34 0 59 4;
#X connect 35 0 19 0;
#X connect 36 0 20 0;
#X connect 37 0 46 0;
#X connect 37 0 45 0;
#X connect 38 0 44 0;
#X connect 39 0 56 0;
#X connect 40 0 55 0;
#X connect 41 0 30 0;
#X connect 41 0 57 0;
#X connect 42 0 29 0;
#X connect 42 0 58 0;
#X connect 43 0 41 1;
#X connect 44 0 41 2;
#X connect 45 0 42 1;
#X connect 46 0 42 2;
#X connect 47 0 49 0;
#X connect 48 0 50 0;
#X connect 52 0 61 0;
#X connect 53 0 47 0;
#X connect 53 0 48 0;
#X connect 54 0 11 0;
#X connect 57 0 40 0;
#X connect 58 0 39 0;
#X connect 59 0 19 1;
#X connect 60 0 20 1;
#X connect 61 0 51 0;
#X connect 62 0 52 0;
#X connect 62 0 53 0;
#X coords 0 -1 1 1 160 60 1 40 70;
