#N canvas 357 22 429 528 10;
#X declare -path lib;
#X obj 92 294 list-accum;
#X obj 11 132 r gyrodelta_all;
#X obj 135 11 r t.flick;
#X obj 121 132 tgl 15 0 empty empty empty 17 7 0 10 -262144 -1 -1 0
1;
#X obj 169 78 i 0;
#X obj 121 78 i 1;
#X obj 121 156 == 0;
#X obj 76 179 spigot 0;
#X obj 11 179 spigot 1;
#X obj 76 200 t b;
#X obj 76 222 i 0;
#X obj 152 200 i 0;
#X obj 186 458 f 0;
#X obj 92 413 * 1;
#X obj 186 490 s t.intensity;
#X obj 135 38 t b b b b;
#X text 211 12 GePS: measure energy before flick;
#X obj 128 490 outlet;
#X obj 92 316 / 26;
#X obj 92 341 pow 2;
#X obj 92 365 * 3;
#X obj 121 104 pipe 250;
#X obj 152 179 cyclone/uzi 100;
#X obj 152 222 cyclone/zl group 100;
#X obj 92 389 cyclone/tanh;
#X obj 11 11 declare -path lib;
#X obj 92 271 list-stream 100;
#X connect 0 0 18 0;
#X connect 1 0 8 0;
#X connect 1 0 7 0;
#X connect 2 0 15 0;
#X connect 3 0 6 0;
#X connect 3 0 8 1;
#X connect 4 0 3 0;
#X connect 5 0 21 0;
#X connect 6 0 7 1;
#X connect 7 0 9 0;
#X connect 8 0 26 0;
#X connect 9 0 10 0;
#X connect 10 0 26 0;
#X connect 11 0 23 0;
#X connect 12 0 14 0;
#X connect 12 0 17 0;
#X connect 13 0 12 1;
#X connect 15 0 5 0;
#X connect 15 1 22 0;
#X connect 15 2 4 0;
#X connect 15 3 12 0;
#X connect 18 0 19 0;
#X connect 19 0 20 0;
#X connect 20 0 24 0;
#X connect 21 0 3 0;
#X connect 22 0 11 0;
#X connect 23 0 26 0;
#X connect 24 0 13 0;
#X connect 26 0 0 0;
